<?xml version="1.0" standalone="no"?><!DOCTYPE svg PUBLIC "-//W3C//DTD SVG 1.1//EN" "http://www.w3.org/Graphics/SVG/1.1/DTD/svg11.dtd"><svg t="1700813253877" class="icon" viewBox="0 0 1024 1024" version="1.1" xmlns="http://www.w3.org/2000/svg" p-id="1132" xmlns:xlink="http://www.w3.org/1999/xlink" width="200" height="200"><path d="M187.7504 802.1504h648.4992a34.0992 34.0992 0 1 1 0 68.2496H187.7504a34.1504 34.1504 0 0 1 0-68.2496z m510.2592-51.2H325.9904a170.7008 170.7008 0 0 1-170.7008-170.7008v-256A170.6496 170.6496 0 0 1 325.9904 153.6h372.0192a170.6496 170.6496 0 0 1 170.7008 170.6496v256a170.6496 170.6496 0 0 1-170.7008 170.7008z m-444.416-499.0976a102.4 102.4 0 0 0-30.0032 72.3968v256a102.4 102.4 0 0 0 102.4 102.4h372.0192a102.4 102.4 0 0 0 102.4-102.4v-256a102.4 102.4 0 0 0-102.4-102.4H325.9904a102.4 102.4 0 0 0-72.448 30.0032z m120.0128 310.3232a34.1504 34.1504 0 0 1-24.064-9.8816l-64.512-68.3008a34.1504 34.1504 0 0 1 0-48.128l66.2016-66.56a34.1504 34.1504 0 1 1 48.4864 48.128l-44.3904 44.3904 42.3424 42.3424a34.1504 34.1504 0 0 1 0 48.128 34.1504 34.1504 0 0 1-24.064 9.8816z m261.8368-2.4576a34.0992 34.0992 0 0 1-11.1104-55.552l44.3392-44.3904-42.2912-42.3424a34.0992 34.0992 0 1 1 48.128-48.128l64.512 68.3008a34.1504 34.1504 0 0 1 0 48.128l-66.2528 66.56a34.048 34.048 0 0 1-37.376 7.424z m-170.5472 8.8576a34.0992 34.0992 0 0 1-25.2416-50.7904l85.3504-148.1216a34.2528 34.2528 0 1 1 59.392 34.1504L499.0464 551.936a34.2016 34.2016 0 0 1-34.1504 16.64z" fill="#111032" p-id="1133"></path></svg>